<?xml version="1.0" encoding="UTF-8"?>
<svg xmlns="http://www.w3.org/2000/svg" xmlns:xlink="http://www.w3.org/1999/xlink" width="1024px" height="1024px" viewBox="0 0 1024 1024" version="1.1">
<g id="surface1">
<path style=" stroke:none;fill-rule:nonzero;fill:rgb(100%,100%,100%);fill-opacity:1;" d="M 358.289062 473.101562 L 652.070312 650.453125 L 353.949219 844.019531 M 691.503906 621.042969 L 138.195312 293.675781 L 352.285156 186.550781 L 894.128906 499.222656 "/>
<path style=" stroke:none;fill-rule:nonzero;fill:rgb(92.54902%,38.039216%,39.215687%);fill-opacity:1;" d="M 474.917969 1012.117188 C 348.871094 1002.886719 233.816406 948.097656 145.824219 855.398438 C 34.203125 737.808594 -13.328125 575.085938 17.367188 415.613281 C 55.152344 219.304688 208.007812 62.832031 403.925781 19.902344 C 628.316406 -29.265625 856.910156 80.683594 960.9375 287.816406 C 1019.449219 404.324219 1029.378906 544.488281 987.898438 668.449219 C 922.617188 863.546875 748.367188 998.21875 543.085938 1012.234375 C 523.769531 1013.554688 506.3125 1014.492188 504.292969 1014.316406 C 502.273438 1014.140625 489.054688 1013.152344 474.917969 1012.117188 Z M 508.539062 745.378906 C 599.5 686.386719 652.679688 650.476562 651.230469 649.027344 C 649.960938 647.757812 583.605469 607.304688 503.777344 559.136719 L 358.636719 471.558594 L 357.101562 523.421875 C 356.257812 551.949219 354.890625 636.273438 354.058594 710.808594 L 352.546875 846.335938 L 358.039062 842.875 C 361.058594 840.972656 428.785156 797.097656 508.539062 745.378906 Z M 804.953125 554.6875 C 855.113281 524.507812 895.285156 499.011719 894.226562 498.03125 C 893.171875 497.050781 770.839844 426.179688 622.382812 340.542969 L 352.464844 184.839844 L 244.164062 239.003906 C 137.992188 292.101562 135.980469 293.242188 141.75 297.070312 C 144.988281 299.222656 270.011719 373.375 419.582031 461.863281 L 691.527344 622.742188 L 702.640625 616.148438 C 708.753906 612.523438 754.792969 584.867188 804.953125 554.6875 Z M 804.953125 554.6875 "/>
<path style=" stroke:none;fill-rule:nonzero;fill:rgb(100%,100%,100%);fill-opacity:1;" d="M 415.390625 455.976562 L 141.664062 293.933594 L 245.253906 241.960938 C 302.226562 213.375 350.1875 189.929688 351.832031 189.855469 C 354.152344 189.75 855.875 477.660156 884.25 495.382812 L 890.886719 499.523438 L 792.046875 558.824219 C 737.6875 591.441406 692.289062 618.101562 691.164062 618.074219 C 690.039062 618.042969 565.941406 545.101562 415.390625 455.976562 Z M 415.390625 455.976562 "/>
<path style=" stroke:none;fill-rule:nonzero;fill:rgb(100%,100%,100%);fill-opacity:1;" d="M 356.496094 706.933594 C 357.304688 633.179688 358.667969 551.148438 359.523438 524.640625 L 361.082031 476.441406 L 503.6875 562.5625 C 582.121094 609.929688 645.933594 649.765625 645.492188 651.089844 C 644.851562 653.011719 375.089844 829.792969 359.28125 838.652344 C 355.261719 840.902344 355.109375 833.765625 356.496094 706.933594 Z M 356.496094 706.933594 "/>
</g>
</svg>
